<svg width="439" height="903" viewBox="0 0 439 903" fill="none" xmlns="http://www.w3.org/2000/svg">
<g clip-path="url(#clip0_64_11)">
<path d="M283.092 897.251L166.093 897.785L165.894 854.135C165.764 825.636 175.547 800.091 207.497 799.945C240.347 799.795 249.618 826.453 249.743 853.753L249.764 858.403L282.914 858.251L283.092 897.251ZM216.165 858.556L216.13 851.056C216.102 844.906 213.233 840.719 207.683 840.745C202.283 840.769 199.453 845.132 199.48 851.132L199.515 858.632L216.165 858.556ZM284.136 731.601C284.286 764.451 262.07 793.953 223.971 794.126C187.671 794.292 163.695 766.651 163.537 732.152C163.379 697.502 187.101 669.343 223.4 669.178C261.2 669.005 283.983 698.152 284.136 731.601ZM246.336 731.624C246.282 719.774 237.386 709.764 223.586 709.827C210.236 709.888 201.432 719.979 201.486 731.828C201.541 743.828 210.435 753.538 223.785 753.477C237.735 753.413 246.39 743.474 246.336 731.624ZM282.014 660.974L165.015 661.508L164.792 612.609C164.677 587.559 177.483 566.8 203.432 566.682C218.282 566.614 228.512 573.018 234.857 582.889L281.56 561.525L281.751 603.525L242.678 620.503L242.686 622.153L281.836 621.975L282.014 660.974ZM212.836 622.29L212.805 615.54C212.782 610.29 210.512 606.1 205.112 606.125C199.862 606.149 197.632 610.509 197.656 615.609L197.686 622.359L212.836 622.29ZM281.46 539.651L199.561 540.025L199.663 562.525L164.564 562.685L164.18 478.686L199.28 478.526L199.383 501.025L281.282 500.652L281.46 539.651ZM281.149 471.425L164.15 471.959L163.808 397.11L198.908 396.95L199.071 432.8L214.371 432.73L214.221 399.88L245.271 399.738L245.421 432.588L280.971 432.426L281.149 471.425ZM282.297 328.627C282.447 361.477 260.231 390.978 222.132 391.152C185.832 391.318 161.856 363.677 161.698 329.177C161.54 294.528 185.262 266.369 221.561 266.203C259.361 266.031 282.144 295.177 282.297 328.627ZM244.497 328.649C244.442 316.8 235.547 306.79 221.747 306.853C208.397 306.914 199.593 317.004 199.647 328.854C199.702 340.854 208.596 350.564 221.946 350.503C235.896 350.439 244.551 340.499 244.497 328.649ZM159.228 313.888L159.355 341.638L138.162 332.285L137.998 296.285L159.228 313.888ZM280.175 258L163.176 258.534L162.998 219.534L245.047 219.16L244.883 183.31L279.833 183.151L280.175 258ZM279.802 176.409L162.803 176.943L162.625 137.943L279.624 137.409L279.802 176.409ZM281.104 67.155C281.253 100.005 259.038 129.506 220.938 129.68C184.639 129.846 160.662 102.205 160.505 67.7054C160.347 33.0558 184.068 4.89722 220.368 4.73156C258.168 4.55906 280.951 33.7054 281.104 67.155ZM243.303 67.1776C243.249 55.3277 234.353 45.3182 220.554 45.3811C207.204 45.4421 198.4 55.5324 198.454 67.3822C198.509 79.3821 207.403 89.0916 220.753 89.0307C234.703 88.967 243.357 79.0274 243.303 67.1776Z" fill="white"/>
<path d="M153.513 825.235C153.531 829.135 152.798 832.888 152.834 840.688L153.016 880.588C153.039 885.688 153.832 894.984 153.861 901.434C153.868 902.934 153.571 903.535 152.521 903.54C151.621 903.544 151.318 902.946 151.312 901.596C151.266 891.696 148.841 886.157 135.941 886.216L50.1422 886.607C37.2417 886.516 34.8677 892.227 34.9129 902.127C34.919 903.477 34.6218 904.078 33.7218 904.082C32.6711 903.937 32.3691 903.488 32.3622 901.988C32.3328 895.538 33.0397 886.085 33.0171 881.135L32.8261 839.286C32.7973 832.986 32.0316 829.539 32.0186 826.689C32.0056 823.839 33.6528 823.232 36.0528 823.221C40.1027 823.202 46.1041 823.475 51.354 823.451C56.4526 823.128 60.6491 822.358 66.1943 821.283C67.8429 820.976 68.7449 821.422 68.749 822.322C68.7531 823.222 68.0052 823.675 66.5066 823.982C42.6815 829.491 35.0541 834.475 35.1178 848.425L35.1794 861.925C35.2054 867.625 38.665 869.709 43.3149 869.688L82.7645 869.508C86.5145 869.491 89.2035 867.079 89.1878 863.629L89.1268 850.279C89.2241 838.728 83.5139 836.504 73.764 836.549C72.264 836.556 71.8127 836.258 71.8086 835.358C71.8051 834.608 72.2538 834.306 73.7537 834.299C78.8537 834.276 84.4064 834.85 90.2563 834.824C95.5063 834.8 101.653 834.171 106.753 834.148C108.103 834.142 108.705 834.439 108.708 835.189C108.712 836.089 108.114 836.392 106.764 836.398C97.0138 836.443 91.3241 838.719 91.3768 850.269L91.4343 862.868C91.4521 866.768 93.8644 869.457 97.3144 869.442L141.114 869.242C148.164 869.21 150.707 867.698 150.675 860.798L150.615 847.448C150.556 834.698 143.931 829.178 117.63 818.048C115.977 817.306 115.225 816.859 115.221 816.109C115.216 815.059 116.116 814.905 117.468 815.349C121.673 816.53 125.879 817.861 132.037 819.483C139.396 821.549 144.048 821.828 149.448 821.803C151.997 821.792 153.501 822.535 153.513 825.235ZM154.978 784.633C155.045 799.333 139.031 807.206 116.381 807.309C89.0813 807.434 70.2774 795.669 70.209 780.67C70.1768 773.62 73.9096 769.853 73.8918 765.953C73.8809 763.553 72.6795 763.258 67.2796 763.283L46.8798 763.376C37.7299 763.418 36.9915 765.971 37.0045 768.821C37.0244 773.171 37.7963 777.967 37.9545 779.767C38.1114 781.266 37.8141 781.867 36.9141 781.871C36.1641 781.875 35.7107 781.127 35.4032 779.478C34.0107 770.185 28.5444 755.659 27.9177 749.812C28.2108 748.311 29.1081 747.707 30.6081 747.7C42.308 747.646 56.2633 748.783 69.0132 748.725L135.312 748.422C148.212 748.363 150.59 743.552 150.549 734.402C150.542 732.902 150.84 732.451 151.89 732.446C152.79 732.442 153.092 732.891 153.099 734.391C153.123 739.791 152.695 744.593 152.721 750.293C152.749 756.443 154.872 761.383 154.882 763.633C155.052 767.982 146.636 764.421 139.13 763.105C136.428 762.817 136.588 764.916 138.694 766.257C148.619 771.762 154.946 777.583 154.978 784.633ZM112.411 791.877C130.56 791.794 144.494 788.281 144.447 777.931C144.418 771.631 137.179 762.964 120.679 763.039L104.779 763.112C86.6294 763.194 74.3521 768.2 74.3891 776.3C74.437 786.8 92.7608 791.967 112.411 791.877ZM27.9211 750.562L27.9177 749.812C27.9156 749.362 27.9143 749.062 27.9129 748.762L27.9211 750.562ZM154.63 708.437C154.682 719.837 146.905 724.822 134.155 724.881L88.8555 725.087C79.7056 725.129 78.9659 727.383 78.9775 729.932C78.9953 733.832 79.9145 738.028 80.072 739.678C80.2275 740.877 79.9302 741.478 78.8802 741.483C78.1302 741.486 77.8275 740.888 77.5207 739.389C75.9803 730.546 69.9167 716.624 69.8961 712.124L69.8955 711.974C69.8879 710.324 71.3838 709.417 72.8838 709.41C81.2837 709.372 92.2391 710.522 101.839 710.478L131.539 710.342C140.389 710.302 144.576 707.433 144.546 700.983C144.506 692.133 134.719 684.078 120.469 684.143L87.0193 684.295C78.9194 684.332 78.779 686.433 78.7893 688.683C78.8043 691.983 79.7228 696.029 79.879 697.378C80.0337 698.427 79.7358 698.879 78.6858 698.883C77.9358 698.887 77.6338 698.438 77.3276 697.09C75.7941 689.747 69.7401 677.924 69.7099 671.324C69.7024 669.674 70.7483 668.769 72.6983 668.76C81.0982 668.722 92.0529 669.722 101.653 669.678L134.952 669.526C147.852 669.468 150.231 664.807 150.189 655.507C150.182 654.157 150.48 653.555 151.53 653.551C152.43 653.546 152.732 654.145 152.739 655.645C152.763 660.895 152.335 665.697 152.361 671.397C152.39 677.697 154.512 682.637 154.523 684.887C154.543 689.237 146.271 684.625 138.772 684.659C136.372 684.67 136.381 686.77 138.337 687.961C148.264 693.916 154.593 700.337 154.63 708.437ZM154.305 637.276C154.352 647.476 147.032 653.959 136.682 654.006C121.682 654.075 112.757 637.765 105.483 621.448C103.816 617.856 100.055 615.323 96.1547 615.341L93.7548 615.352C77.4049 615.426 72.7783 620.548 72.8104 627.597C72.8385 633.747 76.0035 637.033 82.0035 637.006C86.5034 636.985 89.1931 634.723 93.9931 634.701C98.193 634.682 101.205 637.368 101.227 642.168C101.252 647.568 96.6163 650.739 91.0663 650.764C79.0665 650.819 69.5659 639.762 69.4968 624.613C69.4304 610.063 77.0358 600.278 93.8356 600.201C108.535 600.134 123.389 600.816 138.089 600.749C144.539 600.72 146.328 598.462 146.316 595.762C146.305 593.362 143.287 589.325 132.024 586.527C130.823 586.382 130.522 586.084 130.519 585.484C130.515 584.734 130.964 584.432 132.165 584.726C147.029 587.658 154.101 592.576 154.148 602.776C154.184 610.726 148.217 617.953 136.955 615.305C134.252 614.717 134.113 617.118 136.519 618.307C149.596 624.247 154.264 628.126 154.305 637.276ZM131.216 639.631C137.966 639.6 142.753 636.728 142.725 630.578C142.688 622.629 132.904 615.173 119.704 615.233L111.155 615.272C107.255 615.29 105.766 617.847 107.282 621.29C113.487 633.262 121.616 639.675 131.216 639.631ZM151.594 568.932C151.616 573.882 152.394 580.028 152.421 585.878C152.428 587.378 152.13 587.98 151.08 587.984C150.18 587.988 149.878 587.39 149.872 586.04C149.829 576.74 147.408 572.101 134.507 572.01L88.3079 572.221C79.158 572.262 78.4182 574.516 78.4299 577.066C78.4477 580.966 79.2175 585.312 79.5244 586.811C79.5305 588.161 79.2326 588.612 78.3326 588.616C77.5826 588.62 77.2799 588.021 76.973 586.523C75.4327 577.679 69.369 563.757 69.3485 559.257C69.3396 557.307 70.8375 556.85 72.0375 556.845C74.4375 556.834 77.8895 557.268 82.3908 557.548C86.1422 557.83 86.4367 556.629 82.9792 554.995C74.4081 550.384 69.2821 544.707 69.2513 537.957C69.226 532.407 72.2102 528.944 77.6102 528.919C84.2101 528.889 87.3778 532.775 87.3956 536.674C87.4278 543.724 80.5197 541.956 80.5471 547.956C80.5683 552.606 88.5422 557.819 97.5421 557.778L134.442 557.61C147.342 557.551 149.703 548.99 149.646 536.54C149.635 534.29 149.932 533.539 150.832 533.535C151.732 533.531 152.185 534.279 152.196 536.679C152.23 544.029 151.528 554.682 151.563 562.182L151.594 568.932ZM153.686 501.628C153.753 516.328 137.739 524.201 115.089 524.304C87.7898 524.429 68.9859 512.664 68.9174 497.665C68.8853 490.615 72.6181 486.848 72.6003 482.948C72.5893 480.548 71.388 480.253 65.9881 480.278L45.5883 480.371C36.4384 480.413 35.7 482.966 35.713 485.816C35.7329 490.166 36.5048 494.963 36.663 496.762C36.8198 498.261 36.5226 498.862 35.6226 498.867C34.8726 498.87 34.4192 498.122 34.1116 496.473C32.7192 487.18 27.2529 472.655 26.6262 466.807C26.9193 465.306 27.8166 464.702 29.3166 464.695C41.0164 464.642 54.9718 465.778 67.7216 465.72L134.021 465.417C146.921 465.358 149.299 460.547 149.257 451.398C149.25 449.898 149.548 449.446 150.598 449.441C151.498 449.437 151.8 449.886 151.807 451.386C151.832 456.786 151.404 461.588 151.43 467.288C151.458 473.438 153.58 478.378 153.591 480.628C153.76 484.977 145.344 481.416 137.838 480.1C135.137 479.812 135.296 481.912 137.402 483.252C147.328 488.757 153.654 494.578 153.686 501.628ZM111.119 508.872C129.269 508.789 143.203 505.276 143.156 494.926C143.127 488.626 135.887 479.959 119.387 480.034L103.488 480.107C85.3379 480.19 73.0606 485.196 73.0975 493.296C73.1454 503.795 91.4692 508.962 111.119 508.872ZM26.6296 467.557L26.6262 466.807C26.6241 466.357 26.6227 466.057 26.6214 465.757L26.6296 467.557ZM153.307 418.49C153.396 437.99 134.104 450.828 111.605 450.931C87.4548 451.041 68.801 439.276 68.7079 418.876C68.6196 399.526 87.9105 386.538 110.41 386.435C134.56 386.325 153.215 398.24 153.307 418.49ZM98.9356 435.838C120.835 435.738 149.904 428.706 149.834 413.556C149.795 404.856 136.73 401.616 123.38 401.676C101.48 401.776 72.264 409.26 72.3311 423.96C72.3701 432.51 85.5857 435.899 98.9356 435.838Z" fill="white"/>
<path d="M307.853 231.655C294.953 231.713 292.576 236.824 292.616 245.524C292.621 246.724 292.323 247.176 291.423 247.18C290.373 247.184 290.071 246.736 290.065 245.386C290.039 239.686 290.751 231.283 290.731 226.933L290.701 220.333C290.678 215.383 289.885 205.936 289.856 199.486C289.849 197.986 290.147 197.535 291.197 197.53C292.097 197.526 292.399 197.975 292.406 199.475C292.45 209.225 294.876 214.914 307.776 214.855L393.575 214.463C406.475 214.404 408.849 208.693 408.804 198.944C408.798 197.444 409.096 196.992 409.996 196.988C411.045 196.983 411.348 197.432 411.355 199.082C411.384 205.382 410.677 214.835 410.7 219.785L410.73 226.385C410.75 230.885 411.539 239.281 411.564 244.831C411.57 246.181 411.273 246.783 410.223 246.788C409.323 246.792 409.02 246.193 409.015 244.993C408.975 236.293 406.552 231.204 393.652 231.263L354.352 231.442C350.452 231.46 347.765 234.172 347.782 238.072L347.934 271.372C347.952 275.272 350.664 277.96 354.564 277.942L393.864 277.763C406.764 277.704 409.141 272.743 409.102 264.043C409.095 262.693 409.393 262.241 410.293 262.237C411.343 262.233 411.645 262.681 411.651 264.031C411.677 269.731 410.966 278.134 410.986 282.634L411.016 289.084C411.039 294.184 411.832 303.481 411.861 309.931C411.868 311.431 411.571 312.032 410.521 312.037C409.621 312.041 409.318 311.442 409.312 310.092C409.266 300.192 406.841 294.653 393.941 294.712L308.142 295.104C295.242 295.013 292.868 300.724 292.913 310.624C292.919 311.974 292.622 312.575 291.722 312.579C290.671 312.434 290.369 311.985 290.362 310.485C290.333 304.035 291.04 294.582 291.017 289.632L290.987 283.032C290.967 278.682 290.179 270.286 290.153 264.586C290.147 263.236 290.445 262.784 291.495 262.78C292.395 262.775 292.697 263.224 292.702 264.424C292.742 273.274 295.165 278.213 308.065 278.154L339.115 278.012C343.014 277.995 345.702 275.282 345.684 271.382L345.532 238.083C345.515 234.183 342.802 231.495 338.902 231.513L307.853 231.655ZM412.857 166.681C412.946 186.18 393.655 199.019 371.155 199.121C347.005 199.231 328.351 187.466 328.258 167.067C328.17 147.717 347.461 134.729 369.96 134.626C394.11 134.516 412.765 146.431 412.857 166.681ZM358.486 184.029C380.386 183.929 409.454 176.896 409.385 161.746C409.345 153.046 396.28 149.806 382.93 149.867C361.03 149.967 331.814 157.45 331.881 172.15C331.92 180.7 345.136 184.09 358.486 184.029ZM410.211 112.632C410.233 117.582 411.011 123.729 411.038 129.579C411.045 131.079 410.747 131.68 409.697 131.685C408.797 131.689 408.495 131.09 408.489 129.74C408.446 120.44 406.025 115.801 393.124 115.71L346.925 115.921C337.775 115.963 337.035 118.216 337.047 120.766C337.065 124.666 337.835 129.013 338.141 130.511C338.148 131.861 337.85 132.313 336.95 132.317C336.2 132.32 335.897 131.722 335.59 130.223C334.05 121.38 327.986 107.457 327.966 102.958C327.957 101.008 329.455 100.551 330.655 100.545C333.055 100.534 336.507 100.969 341.008 101.248C344.759 101.531 345.054 100.33 341.596 98.6953C333.025 94.0844 327.899 88.4077 327.868 81.6578C327.843 76.1078 330.827 72.6442 336.227 72.6195C342.827 72.5894 345.995 76.475 346.013 80.3749C346.045 87.4249 339.137 85.6564 339.164 91.6563C339.185 96.3063 347.159 101.52 356.159 101.479L393.059 101.31C405.959 101.252 408.32 92.6907 408.263 80.2409C408.252 77.9909 408.549 77.2395 409.449 77.2354C410.349 77.2313 410.802 77.9792 410.813 80.3792C410.847 87.7291 410.146 98.3825 410.18 105.882L410.211 112.632ZM412.336 52.3642C412.382 62.5641 405.062 69.0475 394.712 69.0948C379.712 69.1632 370.787 52.8538 363.513 36.5368C361.846 32.9444 358.085 30.4115 354.185 30.4293L351.785 30.4403C335.435 30.5149 330.808 35.636 330.841 42.686C330.869 48.8359 334.034 52.1215 340.034 52.0941C344.533 52.0736 347.223 49.8113 352.023 49.7894C356.223 49.7702 359.235 52.4565 359.257 57.2564C359.282 62.6564 354.646 65.8276 349.096 65.8529C337.097 65.9077 327.596 54.8509 327.527 39.7011C327.46 25.1512 335.066 15.3664 351.866 15.2897C366.566 15.2227 381.419 15.9049 396.119 15.8378C402.569 15.8084 404.358 13.5502 404.346 10.8502C404.335 8.45022 401.317 4.41395 390.054 1.61532C388.853 1.4708 388.552 1.17217 388.549 0.572179C388.546 -0.177812 388.994 -0.479863 390.195 -0.185342C405.059 2.74685 412.132 7.66463 412.178 17.8645C412.214 25.8144 406.247 33.0417 394.985 30.3931C392.282 29.8054 392.143 32.2061 394.549 33.3951C407.626 39.3355 412.294 43.2143 412.336 52.3642ZM389.246 54.7196C395.996 54.6888 400.783 51.8169 400.755 45.6669C400.719 37.717 390.934 30.2616 377.735 30.3218L369.185 30.3609C365.285 30.3787 363.796 32.9355 365.312 36.3786C371.517 48.3504 379.646 54.7634 389.246 54.7196Z" fill="white"/>
</g>
<defs>
<clipPath id="clip0_64_11">
<rect width="439" height="903" fill="white"/>
</clipPath>
</defs>
</svg>
